<mxfile host="app.diagrams.net" modified="2024-02-24T17:38:32.711Z" agent="Mozilla/5.0 (Macintosh; Intel Mac OS X 10_15_7) AppleWebKit/537.36 (KHTML, like Gecko) Chrome/121.0.0.0 Safari/537.36" version="23.1.6" etag="hCXeoIwPachaGxDg64q8" type="github">
  <diagram name="페이지-1" id="p0TGhDWS1TmopPBd6gJJ">
    <mxGraphModel>
      <root>
        <mxCell id="0" />
        <mxCell id="1" parent="0" />
      </root>
    </mxGraphModel>
  </diagram>
</mxfile>
